<?xml version="1.0" standalone="no"?>
<!DOCTYPE svg PUBLIC "-//W3C//DTD SVG 20010904//EN"
 "http://www.w3.org/TR/2001/REC-SVG-20010904/DTD/svg10.dtd">
<svg version="1.0" xmlns="http://www.w3.org/2000/svg"
 width="985.000000pt" height="493.000000pt" viewBox="0 0 985.000000 493.000000"
 preserveAspectRatio="xMidYMid meet">
<metadata>
Created by potrace 1.16, written by Peter Selinger 2001-2019
</metadata>
<g transform="translate(0.000000,493.000000) scale(0.100000,-0.100000)"
fill="#000000" stroke="none">
<path d="M1210 3027 c-14 -8 -23 -20 -22 -28 2 -8 6 -311 9 -674 5 -573 8
-662 21 -677 18 -21 51 -23 76 -5 16 12 17 20 7 85 -7 45 -11 257 -11 579 0
420 2 504 13 488 7 -11 35 -67 61 -125 62 -135 360 -732 387 -776 24 -39 66
-51 125 -35 l39 11 177 387 c98 214 193 423 213 466 19 43 40 75 45 72 6 -4
10 -201 10 -556 l0 -551 29 -29 c33 -33 67 -37 113 -13 27 14 29 19 23 47 -4
18 -9 319 -12 669 l-4 637 -26 21 c-18 14 -41 20 -74 20 -91 0 -81 14 -243
-356 -218 -498 -298 -674 -306 -674 -6 0 -316 630 -441 896 -26 56 -58 109
-71 118 -27 19 -103 21 -138 3z"/>
<path d="M3235 3031 c-189 -38 -315 -170 -377 -396 -19 -71 -22 -105 -22 -300
0 -194 3 -229 22 -297 57 -206 167 -334 330 -385 89 -27 267 -25 355 5 167 58
276 197 323 412 21 98 29 309 15 429 -33 278 -143 448 -336 515 -56 20 -245
30 -310 17z m271 -92 c55 -28 106 -84 138 -154 102 -218 97 -708 -9 -913 -31
-62 -89 -120 -145 -146 -35 -16 -65 -20 -135 -20 -83 0 -96 2 -145 30 -97 54
-150 145 -187 316 -24 112 -24 456 -1 568 46 214 138 327 284 348 66 10 144
-1 200 -29z"/>
<path d="M4198 3020 c-23 -18 -25 -23 -17 -62 4 -24 8 -191 9 -373 0 -475 16
-612 82 -738 81 -151 236 -228 433 -213 186 13 305 89 376 241 62 132 63 137
67 651 l3 472 -28 22 c-22 17 -37 21 -72 17 -65 -7 -74 -21 -62 -98 17 -105
14 -789 -4 -892 -29 -166 -82 -260 -176 -312 -49 -27 -63 -30 -144 -30 -103 1
-150 19 -203 80 -43 48 -59 82 -84 173 -20 72 -22 107 -27 560 l-6 484 -24 19
c-31 25 -91 25 -123 -1z"/>
<path d="M5605 3031 c-27 -5 -63 -14 -79 -20 -24 -10 -27 -15 -20 -34 4 -12
10 -309 13 -660 l6 -639 29 -25 c25 -21 37 -24 74 -20 68 7 74 19 62 112 -6
44 -10 179 -8 300 l3 220 115 0 c193 0 218 -24 334 -318 76 -193 113 -262 160
-292 75 -50 189 -12 197 65 5 46 1 50 -44 44 -39 -6 -46 -3 -69 24 -14 17 -54
97 -88 179 -35 81 -71 165 -82 186 -26 53 -92 122 -129 138 l-31 12 73 35
c162 77 247 232 220 400 -24 151 -102 228 -279 277 -66 19 -377 29 -457 16z
m340 -73 c68 -14 140 -54 170 -94 40 -52 55 -108 55 -204 0 -77 -3 -94 -31
-149 -37 -74 -106 -133 -181 -156 -33 -9 -93 -15 -165 -15 l-113 0 0 310 0
310 23 5 c67 14 152 12 242 -7z"/>
<path d="M6620 3032 c-9 -4 -27 -15 -40 -24 l-24 -18 22 -27 c12 -16 111 -206
221 -423 l199 -394 7 -235 c7 -227 8 -235 31 -258 27 -27 71 -30 116 -7 26 13
29 19 23 42 -4 15 -9 123 -12 240 l-5 212 212 392 c116 215 214 405 217 422 8
49 -27 86 -80 86 -59 0 -70 -11 -72 -67 -1 -38 -18 -83 -84 -218 -45 -93 -116
-241 -158 -328 -42 -87 -81 -156 -87 -154 -9 3 -65 116 -203 412 -23 50 -64
138 -92 197 -60 130 -85 158 -138 157 -21 0 -45 -3 -53 -7z"/>
<path d="M8168 3033 c-14 -2 -31 -10 -37 -17 -6 -7 -46 -116 -90 -242 -43
-126 -142 -413 -220 -637 -78 -224 -141 -419 -141 -433 0 -41 42 -74 92 -74
59 0 71 11 74 62 2 52 102 390 118 400 15 10 498 10 513 0 7 -4 40 -97 73
-207 34 -109 65 -207 70 -216 22 -40 123 -50 158 -16 12 13 12 19 -1 43 -8 16
-110 318 -226 671 -166 505 -216 646 -233 658 -21 14 -85 18 -150 8z m117
-299 c30 -93 79 -248 109 -345 31 -97 56 -181 56 -187 0 -9 -63 -12 -230 -12
-126 0 -230 3 -230 6 0 6 168 554 212 692 7 22 14 30 20 24 5 -5 34 -86 63
-178z"/>
</g>
</svg>
