<?xml version="1.0" standalone="no"?>
<!DOCTYPE svg PUBLIC "-//W3C//DTD SVG 20010904//EN" "http://www.w3.org/TR/2001/REC-SVG-20010904/DTD/svg10.dtd">
<svg version="1.0" xmlns="http://www.w3.org/2000/svg" width="512.000000pt" height="512.000000pt" viewBox="0 0 512.000000 512.000000" preserveAspectRatio="xMidYMid meet">
    <metadata>
    
Created by potrace 1.16, written by Peter Selinger 2001-2019
</metadata>
    <g transform="translate(0.000000,512.000000) scale(0.100000,-0.100000)" fill="#000000" stroke="none">
        <path d="M341 4464 c-125 -34 -239 -130 -299 -254 -32 -67 -37 -85 -40 -174
-5 -120 14 -201 68 -284 69 -106 164 -175 287 -207 87 -23 4319 -23 4406 0
120 31 223 105 288 206 92 143 94 353 5 503 -33 56 -111 132 -172 166 -111 64
45 60 -2329 59 -1858 0 -2168 -2 -2214 -15z" />
        <path d="M401 3030 c-71 -11 -135 -36 -199 -78 -70 -46 -117 -102 -161 -192
-35 -74 -36 -77 -36 -200 0 -123 1 -126 36 -200 62 -128 146 -204 280 -252
l64 -23 2175 0 2175 0 64 23 c134 48 218 124 280 252 35 74 36 77 36 200 0
123 -1 126 -36 200 -62 128 -146 204 -280 252 l-64 23 -2140 1 c-1177 1 -2164
-2 -2194 -6z" />
        <path d="M353 1575 c-119 -32 -216 -103 -283 -207 -54 -83 -73 -164 -68 -284
3 -89 8 -107 40 -174 42 -85 115 -166 193 -210 112 -64 -44 -60 2325 -60 2369
0 2213 -4 2324 60 150 85 236 236 236 411 0 228 -137 407 -357 464 -84 22
-4329 21 -4410 0z" />
    </g>
</svg>
